<?xml version="1.0" encoding="UTF-8"?>
<svg id="_레이어_1" data-name="레이어_1" xmlns="http://www.w3.org/2000/svg" width="820" height="820" version="1.1" viewBox="0 0 820 820">
  <!-- Generator: Adobe Illustrator 30.0.0, SVG Export Plug-In . SVG Version: 2.1.1 Build 123)  -->
  <g id="_레이어_11" data-name="레이어_1">
    <g id="_그룹_752" data-name="그룹_752">
      <rect id="_사각형_24485" data-name="사각형_24485" x="100" y="100" width="620" height="620" fill="none"/>
      <g id="_그룹_751" data-name="그룹_751">
        <path id="_패스_6211" data-name="패스_6211" d="M480,140H200c-33.1,0-60,26.9-60,60v280c0,33.1,26.9,60,60,60h50c-16.6,0-30-13.4-30-30h0V250c0-16.6,13.4-30,30-30h260c16.6,0,30,13.4,30,30h0v-50c0-33.1-26.9-60-60-60Z" fill="#fff"/>
        <path id="_패스_6212" data-name="패스_6212" d="M620,280h-50c16.6,0,30,13.4,30,30h0v260c0,16.6-13.4,30-30,30h-260c-16.6,0-30-13.4-30-30v50c0,33.1,26.9,60,60,60h280c33.1,0,60-26.9,60-60h0v-280c0-33.1-26.9-60-60-60Z" fill="#fff"/>
      </g>
    </g>
  </g>
</svg>