<?xml version="1.0" encoding="UTF-8"?>
<svg id="_레이어_1" data-name="레이어 1" xmlns="http://www.w3.org/2000/svg" viewBox="0 0 65 65">
  <defs>
    <style>
      .cls-1 {
        fill: #76A6D7;
      }
    </style>
  </defs>
  <g>
    <path class="cls-1" d="M63.04,63.65H8.07c-.34,0-.61-.27-.61-.61s.27-.61.61-.61h54.35V8.07c0-.34.27-.61.61-.61s.61.27.61.61v54.96c0,.34-.27.61-.61.61Z"/>
    <g>
      <path class="cls-1" d="M63.04,17.49v-9.42l-5.52,5.52c3.41,3.41,5.52,8.12,5.52,13.33v-9.42Z"/>
      <path class="cls-1" d="M63.04,27.53c-.34,0-.61-.27-.61-.61,0-4.87-1.9-9.45-5.34-12.89-.12-.11-.18-.27-.18-.43s.06-.32.18-.43l5.52-5.52c.17-.17.44-.23.67-.13.23.09.38.32.38.56v18.84c0,.34-.27.61-.61.61ZM58.37,13.6c1.79,1.9,3.16,4.11,4.05,6.5v-10.56l-4.05,4.05Z"/>
    </g>
    <g>
      <path class="cls-1" d="M17.49,63.04h-9.42l5.52-5.52c3.41,3.41,8.12,5.52,13.33,5.52h-9.42Z"/>
      <path class="cls-1" d="M26.92,63.65H8.07c-.25,0-.47-.15-.56-.38-.1-.23-.04-.49.13-.67l5.52-5.52c.23-.23.63-.23.86,0,3.44,3.44,8.02,5.34,12.89,5.34.34,0,.61.27.61.61s-.27.61-.61.61ZM9.54,62.42h10.56c-2.39-.89-4.6-2.26-6.5-4.05l-4.05,4.05Z"/>
    </g>
  </g>
  <g>
    <path class="cls-1" d="M1.96,57.54c-.34,0-.61-.27-.61-.61V1.96c0-.34.27-.61.61-.61h54.96c.34,0,.61.27.61.61s-.27.61-.61.61H2.58v54.35c0,.34-.27.61-.61.61Z"/>
    <g>
      <path class="cls-1" d="M1.96,47.51v9.42l5.52-5.52c-3.41-3.41-5.52-8.12-5.52-13.33v9.42Z"/>
      <path class="cls-1" d="M1.96,57.54c-.08,0-.16-.02-.23-.05-.23-.09-.38-.32-.38-.56v-18.85c0-.34.27-.61.61-.61s.61.27.61.61c0,4.87,1.9,9.45,5.34,12.89.24.24.24.62,0,.86l-5.52,5.52c-.12.12-.27.18-.43.18ZM2.58,44.9v10.55l4.05-4.05c-1.79-1.91-3.16-4.11-4.05-6.5Z"/>
    </g>
    <g>
      <path class="cls-1" d="M47.51,1.96h9.42l-5.52,5.52c-3.41-3.41-8.12-5.52-13.32-5.52h9.42Z"/>
      <path class="cls-1" d="M51.41,8.09c-.16,0-.31-.06-.43-.18-3.44-3.44-8.02-5.34-12.89-5.34-.34,0-.61-.27-.61-.61s.27-.61.61-.61h18.84c.25,0,.47.15.56.38.1.23.04.49-.13.67l-5.52,5.52c-.12.12-.28.18-.43.18ZM44.9,2.57c2.39.89,4.6,2.26,6.5,4.05l4.05-4.05h-10.56Z"/>
    </g>
  </g>
</svg>