<?xml version="1.0" encoding="UTF-8"?>
<svg id="_레이어_1" data-name="레이어 1" xmlns="http://www.w3.org/2000/svg" viewBox="18.75 23.88 112.25 102.13">
  <defs>
    <style>
      .cls-1 {
        fill: #fff;
      }

      .cls-2 {
        fill: #7884d8;
      }

      .cls-3 {
        fill: #50a6c3;
      }

      .cls-4 {
        fill: #173b6b;
      }
    </style>
  </defs>
  <g>
    <polyline class="cls-1" points="107.2 87.63 107.2 123.56 21.37 123.56 21.37 32.22 107.2 32.22 107.2 76.14"/>
    <polygon class="cls-4" points="109.2 125.56 19.37 125.56 19.37 30.22 109.2 30.22 109.2 76.14 105.2 76.14 105.2 34.22 23.37 34.22 23.37 121.56 105.2 121.56 105.2 87.63 109.2 87.63 109.2 125.56"/>
  </g>
  <polygon class="cls-2" points="23.31 34.14 23.31 49.98 105.27 49.98 105.27 43.75 105.27 41.75 105.27 34.14 23.31 34.14"/>
  <rect class="cls-4" x="86.75" y="24.44" width="4" height="14.51"/>
  <rect class="cls-4" x="38.27" y="24.44" width="4" height="14.51"/>
  <path class="cls-4" d="M107.2,53.3H21.37c-1.1,0-2-.9-2-2s.9-2,2-2h85.83c1.1,0,2,.9,2,2s-.9,2-2,2Z"/>
  <rect class="cls-4" x="35.94" y="64.28" width="24.11" height="4"/>
  <rect class="cls-4" x="35.94" y="92.95" width="51.75" height="4"/>
  <rect class="cls-4" x="35.94" y="78.61" width="55.85" height="4"/>
  <rect class="cls-3" x="35.94" y="107.28" width="38" height="4"/>
  <g>
    <rect class="cls-1" x="75.32" y="83.43" width="50.88" height="7.59" transform="translate(-32.5 88.85) rotate(-41.58)"/>
    <path class="cls-4" d="M84.25,108.95s-.08,0-.12,0c-.53-.03-1.02-.27-1.38-.67l-5.04-5.68c-.73-.83-.66-2.09.17-2.82l38.05-33.78c.83-.73,2.09-.66,2.82.17l5.04,5.67c.35.4.53.92.5,1.45-.03.53-.27,1.03-.67,1.38l-38.06,33.78c-.37.33-.84.5-1.33.5ZM82.04,101.44l2.38,2.68,35.06-31.13-2.38-2.68-35.06,31.12Z"/>
  </g>
  <g>
    <rect class="cls-3" x="118.77" y="63.72" width="8.41" height="7.59" transform="translate(-13.8 98.68) rotate(-41.61)"/>
    <path class="cls-4" d="M122.34,75.14s-.08,0-.12,0c-.53-.03-1.02-.27-1.38-.67l-5.04-5.67c-.35-.4-.53-.92-.5-1.45.03-.53.27-1.02.67-1.38l6.29-5.58c.83-.73,2.09-.66,2.82.17l5.04,5.67c.73.83.66,2.09-.17,2.82l-6.29,5.58c-.37.33-.84.5-1.33.5ZM120.13,67.63l2.38,2.68,3.29-2.93-2.38-2.68-3.29,2.92Z"/>
  </g>
  <polygon class="cls-3" points="79.22 101.27 74.5 110.54 84.25 106.95 79.22 101.27"/>
  <path class="cls-4" d="M74.5,112.54c-.56,0-1.11-.24-1.5-.67-.55-.62-.66-1.5-.29-2.24l4.72-9.26c.3-.59.87-.99,1.53-1.08.66-.09,1.31.16,1.75.66l5.04,5.68c.44.49.6,1.17.44,1.82-.16.64-.63,1.16-1.25,1.39l-9.76,3.58c-.23.08-.46.12-.69.12ZM79.67,104.8l-1.07,2.1,2.22-.81-1.14-1.29Z"/>
  <path class="cls-4" d="M106.55,98.03c-.57,0-1.14-.25-1.54-.72-.71-.85-.59-2.11.26-2.82l15.08-12.57v-8.79c0-1.1.9-2,2-2s2,.9,2,2v9.73c0,.59-.26,1.16-.72,1.54l-15.79,13.17c-.37.31-.83.46-1.28.46Z"/>
</svg>