<?xml version="1.0" encoding="UTF-8"?>
<svg id="_레이어_1" data-name="레이어 1" xmlns="http://www.w3.org/2000/svg" viewBox="0 0 65 65">
  <defs>
    <style>
      .cls-1 {
        fill: #76A6D7;
      }
    </style>
  </defs>
  <path class="cls-1" d="M1.35,32.5c0-17.17,13.97-31.15,31.15-31.15s31.15,13.97,31.15,31.15c0,17.17-13.97,31.15-31.15,31.15S1.35,49.67,1.35,32.5ZM2.58,32.5c0,16.5,13.42,29.92,29.92,29.92s29.92-13.42,29.92-29.92S49,2.58,32.5,2.58,2.58,16,2.58,32.5Z"/>
  <path class="cls-1" d="M6.75,32.5c0-14.2,11.55-25.75,25.75-25.75,14.2,0,25.75,11.55,25.75,25.75s-11.55,25.75-25.75,25.75c-14.2,0-25.75-11.55-25.75-25.75ZM7.97,32.5c0,13.52,11,24.52,24.53,24.52s24.53-11,24.53-24.52S46.02,7.98,32.5,7.98,7.97,18.98,7.97,32.5Z"/>
  <path class="cls-1" d="M19.67,32.5c0-7.07,5.75-12.83,12.83-12.83s12.83,5.75,12.83,12.83c0,7.07-5.75,12.83-12.83,12.83-7.07,0-12.83-5.75-12.83-12.83ZM20.9,32.5c0,6.4,5.21,11.6,11.6,11.6s11.6-5.21,11.6-11.6c0-6.4-5.2-11.6-11.6-11.6s-11.6,5.21-11.6,11.6Z"/>
  <path class="cls-1" d="M1.96,63.65c.16,0,.31-.06.43-.18L63.47,2.4c.24-.24.24-.62,0-.86-.24-.24-.62-.24-.86,0L1.53,62.6c-.24.24-.24.62,0,.86.12.12.28.18.43.18Z"/>
</svg>