<svg xmlns="http://www.w3.org/2000/svg" viewBox="0 0 100 100">
  <defs>
    <style>
      .cls-1 {
        fill: none;
        stroke: #fff;
      }
      .cls-1, .cls-2 {
        stroke-linecap: round;
        stroke-linejoin: round;
        stroke-width: 2px;
      }
      .cls-2 {
        fill: #76a6d7;
        stroke: #76a6d7;
      }
    </style>
  </defs>
  <rect class="cls-2" x="32.97" y="42.06" width="6.64" height="6.64"/>
  <rect class="cls-2" x="50.67" y="42.06" width="6.64" height="6.64"/>
  <rect class="cls-2" x="68.36" y="42.06" width="6.64" height="6.64"/>
  <path class="cls-2" d="M21.18,72.91c.3,5.12,2.81,19.96,21.83,19.05,17.99-.86,40.34-12.12,49.16-16.95-25.92-8.41-54.54-5.23-70.99-2.1Z"/>
  <path class="cls-1" d="M7.48,76.12s45.73-13.92,85.04-.99"/>
  <path class="cls-1" d="M33.27,72.14s1.77,6.19,7.08,10.18"/>
  <path class="cls-1" d="M51.86,69.93s1.44,5.03,5.75,8.27"/>
  <polyline class="cls-1" points="84.37 61.97 84.37 19.9 67.03 29.2 67.03 19.9 49.7 29.2 49.7 19.9 35.51 27.51 35.51 8 23.61 8 23.61 71.26"/>
</svg>
